<svg width="1224" height="571" viewBox="0 0 1224 571" fill="none" xmlns="http://www.w3.org/2000/svg">
<path d="M-65.6841 -445.528C386.163 -445.916 838.01 -445.916 1289.86 -445.528C1289.65 63.5755 1289.65 572.679 1289.86 1081.78C838.01 1081.78 386.163 1081.78 -65.6841 1081.78C-66.1053 572.679 -66.1053 63.5755 -65.6841 -445.528Z" stroke="#4383FF" stroke-width="0.622119" stroke-miterlimit="10"/>
<path d="M-65.6861 645.4C15.6081 633.88 74.2525 572.357 146.452 534.799C212.2 500.608 260.199 516.787 318.154 560.557C380.781 607.843 444.633 687.207 521.103 704.443C579.173 717.516 643.637 715.229 702.856 722.542C759.05 729.51 827.708 748.946 884.016 737.815C936.074 727.504 970.422 677.413 1009.44 642.056C1104.43 556.242 1187.29 641.323 1289.8 645.422" stroke="#4383FF" stroke-width="0.622119" stroke-miterlimit="10"/>
<path d="M-65.6861 572.703C-0.283132 564.333 29.6996 509.54 83.9596 476.534C150.358 436.151 215.627 479.533 276.071 515.364C367.762 569.705 466.058 664.212 570.499 683.951C617.331 692.795 669.619 671.784 714.554 658.798C762.113 645.056 808.677 638.93 856.695 629.718C921.964 617.206 975.4 564.182 1030.64 527.143C1076.13 496.683 1137.32 459.816 1188.32 497.459C1228.78 527.315 1235.81 564.851 1289.86 572.638" stroke="#4383FF" stroke-width="0.622119" stroke-miterlimit="10"/>
<path d="M-65.6861 499.961C-7.38632 492.907 -1.98713 447.066 40.3448 413.888C101.057 366.299 189.244 430.541 245.533 460.505C313.31 496.574 379.211 537.065 446.567 574.169C495.619 601.199 550.262 636.556 605.001 646.652C652.866 655.475 687.941 624.691 722.366 592.074C760.275 556.156 788.745 541.422 837.53 533.333C912.295 520.886 979.919 463.633 1045.86 425.903C1088.27 401.635 1171.57 346.281 1213.69 399.089C1247.22 441.112 1228.47 488.225 1289.97 499.918" stroke="#4383FF" stroke-width="0.622119" stroke-miterlimit="10"/>
<path d="M-65.6861 427.197C-10.1625 418.957 -1.14471 378.811 40.8043 348.114C101.976 303.33 187.195 363.905 244.729 392.121C311.013 424.609 375.956 460.505 441.934 493.791C491.177 518.642 544.461 550.224 598.089 561.42C643.063 570.825 680.417 542.975 715.646 515.234C754.072 485.032 784.897 473.189 830.522 464C906.475 448.748 973.218 393.566 1040.69 354.693C1084.21 329.626 1164.85 275.523 1208.87 327.124C1243.9 368.003 1229.2 416.002 1289.86 427.197" stroke="#4383FF" stroke-width="0.622119" stroke-miterlimit="10"/>
<path d="M-65.6861 354.476C-12.6706 349.234 19.8202 317.804 67.5514 297.871C129.719 271.79 195.16 300.028 255.527 320.651C350.817 353.01 448.367 402.626 547.735 416.41C590.641 422.364 635.807 416.906 679.268 419.56C721.638 422.148 767.072 427.045 809.155 419.064C881.317 405.387 944.173 345.265 1006.11 305.464C1056.29 273.106 1119.28 232.766 1175.36 272.092C1219.84 303.286 1232.28 346.603 1289.91 354.476" stroke="#4383FF" stroke-width="0.622119" stroke-miterlimit="10"/>
<path d="M-65.6861 281.781C-7.97985 280.573 44.9207 262.992 101.497 253.737C156.102 244.806 212.813 246.295 267.858 247.524C339.77 249.121 411.453 251.364 483.347 251.019C540.555 250.739 585.089 283.377 632.016 317.03C674.692 347.576 727.21 391.713 781.049 382.394C848.156 370.766 906.781 303.72 961.386 263.358C1016.7 222.371 1067.05 197.542 1132.7 221.897C1188.23 242.476 1229.24 277.725 1289.82 281.803" stroke="#4383FF" stroke-width="0.622119" stroke-miterlimit="10"/>
<path d="M-65.6861 209.061C-0.914948 210.161 63.5307 205.372 128.244 203.495C182.983 201.899 227.517 200.583 278.656 176.012C326.521 152.995 379.958 111.015 433.012 105.968C498.702 99.7331 552.732 174.697 595.638 221.336C635.998 265.192 695.791 348.611 759.605 337.437C823.419 326.263 877.353 255.225 926.731 214.087C983.289 166.974 1029.6 151.377 1099.05 166.844C1163.64 181.211 1223.11 206.753 1289.7 209.061" stroke="#4383FF" stroke-width="0.622119" stroke-miterlimit="10"/>
<path d="M-65.6861 136.273C2.7228 135.259 71.0743 138.021 139.464 138.905C193.494 139.595 240.153 141.429 287.444 108.596C331.671 77.8342 371.342 23.386 426.368 17.6478C495.447 10.5721 550.032 93.7329 592.46 143.521C632.935 190.98 692.02 281.842 759.395 267.82C821.37 254.877 871.916 190.678 920.681 150.662C978.828 102.966 1021.96 93.2798 1092.19 104.562C1158.23 115.176 1223.13 130.751 1289.78 136.252" stroke="#4383FF" stroke-width="0.622119" stroke-miterlimit="10"/>
<path d="M-65.6861 63.5543C13.9615 64.1799 92.6327 77.6409 171.917 84.6519C229.24 89.7429 278.828 92.3316 328.283 55.2058C373.199 21.4885 416.661 -37.3172 473.62 -44.0262C539.234 -51.6627 591.273 21.2296 633.088 67.6961C676.492 116.147 726.061 185.178 793.13 178.577C845.207 173.443 893.34 133.685 939.061 108.813C994.738 78.6117 1041.82 78.8274 1101.94 75.0954C1164.85 71.1908 1226.67 61.5912 1289.84 63.5111" stroke="#4383FF" stroke-width="0.622119" stroke-miterlimit="10"/>
<path d="M-65.6861 -9.14094C30.1783 -3.14388 123.649 22.6349 218.384 38.4904C282.887 49.2765 334.045 54.3891 389.397 10.9643C436.841 -26.2692 483.04 -90.5543 543.599 -99.7657C604.541 -109.063 652.196 -51.1635 693.417 -9.35665C739.368 37.2177 778.77 79.2834 842.757 82.9507C884.055 85.3452 925.755 81.5054 967.034 80.0384C1017.52 78.2695 1067.55 84.9354 1115.84 64.4849C1175.82 39.0729 1224.47 -1.18079 1289.86 -9.05464" stroke="#4383FF" stroke-width="0.622119" stroke-miterlimit="10"/>
<path d="M-65.6861 -81.8403C44.3655 -71.2484 150.818 -34.5972 258.974 -11.1267C329.45 4.16797 381.777 11.6751 442.029 -37.2075C491.809 -77.5043 540.325 -146.643 604.024 -158.012C660.409 -168.151 704.828 -122.892 745.475 -85.939C766 -67.2791 786.18 -47.4111 809.27 -32.7636C835.251 -16.2609 857.537 -16.2609 885.682 -10.0265C925.984 -1.07408 955.891 23.7987 990.985 45.8023C1037.93 75.313 1081.91 82.3024 1127.99 45.9964C1184.55 1.32043 1218.5 -64.8414 1289.86 -81.7972" stroke="#4383FF" stroke-width="0.622119" stroke-miterlimit="10"/>
<path d="M-65.6861 -154.582C49.1903 -143.904 159.969 -102.14 272.472 -76.1673C344.384 -59.5783 396.328 -52.6752 457.767 -102.378C507.796 -142.847 558.686 -214.553 622.845 -225.684C676.339 -234.982 721.37 -193.477 761.424 -159.975C781.221 -143.408 800.807 -125.46 822.883 -112.797C849.151 -97.6964 871.514 -98.0847 899.123 -91.2247C943.58 -80.0719 965.119 -45.6643 997.744 -13.5649C1119.46 105.88 1183.96 -131.176 1289.86 -154.582" stroke="#4383FF" stroke-width="0.622119" stroke-miterlimit="10"/>
<path d="M1225.29 -445.592C1224.68 -300.821 1237.62 -156.525 1231.04 -11.6895C1226.1 95.3517 1222 199.308 1236.78 305.637C1254.19 431.101 1243.31 549.015 1232.59 674.522C1221.1 808.269 1225.16 947.345 1225.41 1081.76" stroke="#4383FF" stroke-width="0.622119" stroke-miterlimit="10"/>
<path d="M1160.75 -445.524C1163.84 -293.85 1206.44 -127.83 1177.99 22.3983C1159.91 117.532 1159.09 187.749 1197.13 278.201C1217.87 327.558 1234.85 374.37 1232.04 430.134C1228.01 509.951 1202.57 587.87 1186.6 665.271C1173.2 729.987 1172.43 792.547 1169.77 858.385C1166.75 932.917 1161.48 1007.23 1160.75 1081.83" stroke="#4383FF" stroke-width="0.622119" stroke-miterlimit="10"/>
<path d="M1096.23 -445.46C1101.17 -330.287 1119.21 -216.58 1130.52 -102.118C1135.19 -55.2628 1151.28 15.3645 1125.37 57.8186C1111.97 79.8653 1100.48 82.1088 1098.32 114.079C1094.64 170.447 1127.21 210.701 1158.61 249.552C1191.16 289.914 1223.71 330.62 1217.96 389.081C1208.89 480.72 1167.7 569.036 1141.65 655.454C1120.82 724.485 1116.41 788.361 1111.45 860.153C1106.36 934.145 1097.88 1007.56 1096.14 1081.83" stroke="#4383FF" stroke-width="0.622119" stroke-miterlimit="10"/>
<path d="M1031.67 -445.502C1037.41 -320.383 1060.2 -197.422 1074.36 -73.382C1077.79 -43.3751 1102.39 62.3286 1067.87 79.1549C1046.53 89.5743 1040.36 63.6229 1034.1 105.387C1025.33 163.912 1073.22 202.569 1108.77 233.439C1148.4 267.955 1189.32 302.664 1182.52 365.353C1171.78 464.261 1119.22 559.503 1087.12 650.925C1062.09 722.114 1057.13 786.205 1050.74 861.146C1044.38 934.902 1033.51 1007.58 1031.76 1081.79" stroke="#4383FF" stroke-width="0.622119" stroke-miterlimit="10"/>
<path d="M967.069 -445.482C971.052 -322.628 1001.13 -203.119 1017.98 -82.0986C1023.51 -42.3842 1046.51 47.1834 1009.73 76.2627C987.766 93.5205 971.913 84.8916 968.18 123.312C962.436 181.557 1003.94 217.539 1040.19 249.293C1079.4 283.679 1117.63 317.958 1110.32 379.697C1098.83 476.901 1058.34 571.366 1031.63 663.997C1021.79 698.167 1011.7 732.791 1006.18 768.234C1000.8 802.879 1003.31 837.804 998.105 872.621C987.517 943.529 967.471 1009 967.05 1081.74" stroke="#4383FF" stroke-width="0.622119" stroke-miterlimit="10"/>
<path d="M902.553 -445.502C910.211 -330.134 950.629 -221.734 974.466 -109.99C987.868 -47.5816 1000.68 16.6819 961.906 70.0515C937.169 104.092 906.248 128.792 901.328 175.755C895.469 231.843 927.443 266.466 961.925 299.86C999.853 336.533 1024.23 367.402 1022.39 426.532C1019.48 519.292 1000.96 612.549 989.668 704.36C981.722 768.904 986.719 842.573 965.831 903.601C944.062 967.152 907.11 1010.6 902.553 1081.7" stroke="#4383FF" stroke-width="0.622119" stroke-miterlimit="10"/>
<path d="M838.007 -445.549C850.643 -337.947 902.146 -243.073 933.967 -141.921C958.857 -63.053 955.659 -7.72033 916.467 63.511C886.504 117.981 842.717 170.358 834.235 236.088C827.4 289.091 849.878 323.326 881.411 358.511C915.874 397.038 927.725 426.01 931.057 480.825C936.571 571.061 943.98 661.147 950.586 751.297C955.085 812.54 973.331 886.101 938.141 939.104C902.185 993.272 849.571 1008.14 838.026 1081.72" stroke="#4383FF" stroke-width="0.622119" stroke-miterlimit="10"/>
<path d="M773.489 -445.549C787.734 -342.003 848.791 -258.044 886.202 -164.183C920.014 -79.4047 904.18 -20.9657 865.237 57.7296C831.119 126.761 778.64 197.625 767.592 277.766C760.642 328.396 778.984 361.142 806.133 397.988C835.905 438.435 842.3 465.487 847.699 517.497C857.062 607.583 884.824 695.08 904.391 782.835C917.41 841.08 944.885 917.036 899.26 964.042C854.113 1010.59 788.691 1003.35 773.432 1081.87" stroke="#4383FF" stroke-width="0.622119" stroke-miterlimit="10"/>
<path d="M708.904 -445.482C721.1 -342.496 786.426 -265.678 825.369 -174.73C861.192 -91.0943 843.118 -29.9587 803.256 46.8814C767.663 115.481 710.78 187.273 700.556 268.471C694.027 320.244 715.988 358.664 741.835 398.465C770.554 442.623 780.778 475.132 785.871 529.214C793.836 614.316 818.726 697.347 836.091 780.314C848.345 838.839 873.694 912.271 829.945 960.161C786.196 1008.05 724.393 1005.18 708.98 1081.83" stroke="#4383FF" stroke-width="0.622119" stroke-miterlimit="10"/>
<path d="M644.37 -445.502C657.083 -348.923 725.185 -286.45 766.349 -204.908C805.752 -126.816 784.442 -68.291 740.598 0.15753C702.076 60.3439 638.894 123.248 627.406 199.83C617.833 263.964 657.159 327.429 683.677 380.173C713.353 439.216 739.315 491.895 741.976 560.732C744.561 627.778 744.81 694.911 746.054 761.979C747.088 818.433 758.538 880.022 730.91 930.501C700.008 986.89 653.847 1010.92 644.351 1081.83" stroke="#4383FF" stroke-width="0.622119" stroke-miterlimit="10"/>
<path d="M579.823 -445.549C593.857 -356.78 664.908 -312.449 708.81 -243.202C753.497 -172.704 725.773 -117.825 678.176 -61.0683C637.223 -12.1858 564.449 40.4287 551.946 111.013C538.008 189.687 598.471 289.587 627.478 356.396C658.437 427.693 711.299 517.843 703.545 600.852C698.682 652.885 668.737 693.742 649.744 739.518C628.971 789.566 634.121 840.519 622.634 892.81C608.255 958.217 581.68 1012.75 579.708 1081.76" stroke="#4383FF" stroke-width="0.622119" stroke-miterlimit="10"/>
<path d="M515.284 -445.57C530.065 -361.136 603.356 -333.049 649.785 -273.359C699.565 -209.182 664.93 -154.432 615.591 -107.793C572.378 -66.9564 493.496 -25.1279 478.926 42.3714C469.947 84.0273 492.137 135.585 505.041 172.991C524.379 229.079 547.163 283.505 569.449 338.105C591.735 392.704 614.518 447.173 633.856 503.196C646.243 539.071 669.717 592.311 659.799 632.371C646.722 685.222 594.281 693.139 559.856 721.162C515.304 757.425 525.93 807.623 523.747 863.128C520.875 936.236 513.542 1008.44 515.208 1081.74" stroke="#4383FF" stroke-width="0.622119" stroke-miterlimit="10"/>
<path d="M450.72 -445.57C465.175 -360.985 539.845 -334.926 586.657 -276.185C636.992 -213.065 602.452 -156.869 551.945 -112.711C508.081 -74.3556 427.706 -37.0142 413.481 30.5067C404.712 72.0763 428.108 125.317 440.572 162.744C459.718 220.169 481.756 276.365 503.333 332.625C524.911 388.885 546.986 445.103 566.132 502.506C578.041 538.273 602.988 593.584 592.669 633.363C578.845 686.711 526.251 687.056 490.62 711.605C444.095 743.662 454.243 797.635 453.573 851.609C452.615 928.384 449.609 1005.03 450.72 1081.83" stroke="#4383FF" stroke-width="0.622119" stroke-miterlimit="10"/>
<path d="M386.159 -445.57C401.035 -355.657 476.777 -312.038 522.9 -243.417C567.989 -176.327 545.454 -123.562 490.868 -76.9012C447.809 -40.099 372.565 -6.81315 358.205 58.7016C350.164 95.3743 366.553 143.372 374.843 178.19C385.986 224.872 399.101 270.95 411.834 317.072C433.047 394.02 474.307 492.108 465.443 574.32C461.384 612.352 442.467 637.224 428.414 670.143C408.177 717.602 413.518 770.735 409.019 821.796C401.361 908.645 386.695 994.373 386.044 1081.83" stroke="#4383FF" stroke-width="0.622119" stroke-miterlimit="10"/>
<path d="M321.621 -445.502C336.938 -344.501 413.407 -280.065 459.473 -196.43C498.435 -125.608 490.891 -72.7348 431.787 -23.8523C389.13 11.3967 323.287 38.103 307.338 101.007C292.959 157.764 305.749 235.661 307.185 293.971C308.736 356.724 302.111 425.022 309.942 487.02C316.145 536.226 343.849 566.211 364.355 607.565C391.523 662.315 383.501 719.741 373.488 779.086C356.256 880.173 328.035 978.736 321.659 1081.83" stroke="#4383FF" stroke-width="0.622119" stroke-miterlimit="10"/>
<path d="M257.079 -445.46C273.066 -334.083 349.784 -252.023 395.735 -155.379C430.006 -83.2851 433.529 -27.37 371.687 21.9008C329.202 55.7907 272.128 76.9315 254.494 137.334C247.008 162.897 247.027 188.826 236.975 214.497C228.838 235.207 218.097 254.47 207.873 273.907C187.253 313.147 155.719 363.496 166.058 411.408C180.36 477.527 259.185 513.811 300.923 553.655C358.859 608.966 351.584 663.889 334.046 741.657C308.467 854.997 268.26 964.864 257.021 1081.74" stroke="#4383FF" stroke-width="0.622119" stroke-miterlimit="10"/>
<path d="M192.536 -445.502C210.495 -331.687 284.687 -241.947 330.158 -141.119C362.707 -68.7008 369.484 -13.6055 307.355 36.442C266.402 69.4259 211.204 90.3724 194.394 149.027C186.505 176.445 190.564 198.643 174.482 223.947C163.358 241.486 147.313 254.364 132.628 267.739C100.272 297.228 62.8793 333.965 75.1902 386.925C92.0196 459.667 191.33 498 239.349 538.146C304.445 592.551 298.05 646.417 278.081 729.254C249.802 846.521 203.948 960.076 192.671 1081.77" stroke="#4383FF" stroke-width="0.622119" stroke-miterlimit="10"/>
<path d="M128.013 -445.482C143.656 -340.102 201.726 -253.188 238.544 -156.415C265.616 -85.3777 269.828 -33.4534 220.374 23.7776C186.275 63.2547 143.598 93.1969 129.87 149.198C123.246 176.25 124.778 200.518 112.639 226.405C103.87 245.173 91.2337 261.158 79.3823 277.445C52.999 313.665 23.3226 355.881 33.4317 406.188C47.2743 474.852 123.571 519.226 164.812 564.851C217.828 623.549 212.83 676.293 196.595 754.104C173.792 863.388 137.816 969.48 127.994 1081.72" stroke="#4383FF" stroke-width="0.622119" stroke-miterlimit="10"/>
<path d="M63.4166 -445.524C73.6788 -294.173 183.558 -148.41 117.849 2.03421C96.6158 50.6148 70.4432 93.3924 64.0484 148.358C57.8833 201.21 53.0777 244.182 35.157 294.38C18.5573 340.631 2.01512 389.6 7.73979 440.575C15.0727 505.939 58.2471 556.461 85.9323 611.664C116.202 671.829 113.388 729.06 103.968 795.675C90.5657 891.218 67.3989 984.733 63.4166 1081.72" stroke="#4383FF" stroke-width="0.622119" stroke-miterlimit="10"/>
<path d="M-1.18261 -445.549C-3.09722 -301.296 36.784 -163.903 16.8147 -18.7653C9.15627 36.8693 -1.10603 91.1233 -1.66126 147.686C-2.19735 202.889 -3.78647 255.805 -9.97065 310.707C-16.0782 364.831 -20.6925 418.913 -19.5437 473.576C-18.1843 536.589 -2.31223 594.942 7.43312 656.487C30.0446 796.857 -2.33137 940.679 -1.16346 1081.83" stroke="#4383FF" stroke-width="0.622119" stroke-miterlimit="10"/>
</svg>
