<svg width="24" height="24" viewBox="0 0 24 24" fill="none" xmlns="http://www.w3.org/2000/svg">
<path d="M16.3 2H7.7C4.56668 2 2 4.56668 2 7.7V16.3C2 19.4333 4.56668 22 7.7 22H16.3C19.4333 22 22 19.4333 22 16.3V7.7C22 4.56668 19.4333 2 16.3 2ZM20 16.3C20 18.3333 18.3333 20 16.3 20H7.7C5.66668 20 4 18.3333 4 16.3V7.7C4 5.66668 5.66668 4 7.7 4H16.3C18.3333 4 20 5.66668 20 7.7V16.3Z" fill="white"/>
<path d="M12.0002 7.33337C9.4335 7.33337 7.3335 9.43337 7.3335 12.0001C7.3335 14.5667 9.4335 16.6667 12.0002 16.6667C14.5669 16.6667 16.6669 14.5667 16.6669 12.0001C16.6669 9.43337 14.5669 7.33337 12.0002 7.33337ZM12.0002 15.0001C10.3335 15.0001 9.00018 13.6667 9.00018 12.0001C9.00018 10.3334 10.3335 9.00005 12.0002 9.00005C13.6669 9.00005 15.0002 10.3334 15.0002 12.0001C15.0002 13.6667 13.6669 15.0001 12.0002 15.0001Z" fill="white"/>
<path d="M17.3335 5.66663C16.7668 5.66663 16.3335 6.09995 16.3335 6.66663C16.3335 7.23331 16.7668 7.66663 17.3335 7.66663C17.9002 7.66663 18.3335 7.23331 18.3335 6.66663C18.3335 6.09995 17.9002 5.66663 17.3335 5.66663Z" fill="white"/>
</svg>
