<?xml version="1.0" encoding="UTF-8"?> <svg xmlns="http://www.w3.org/2000/svg" width="1680" height="1121" viewBox="0 0 1680 1121" fill="none"> <rect width="1680" height="1120" transform="translate(0 0.68689)" fill="white"></rect> <circle cx="1387" cy="243.713" r="35.5039" fill="#DEF7FF"></circle> <circle cx="139.516" cy="436.035" r="21.8484" fill="#DEF7FF"></circle> <circle cx="900.328" cy="943.938" r="27" fill="#DEF7FF"></circle> <g clip-path="url(#clip0)"> <path d="M575.895 442.376H434.017L414.359 473.129L516.922 536.341L575.895 442.376Z" fill="#00B5DE"></path> <path d="M414.363 473.129L319.492 414.187V555.989L352.825 574.782L516.925 536.341L414.363 473.129Z" fill="#00DECC"></path> <path d="M547.695 565.385L516.927 546.592L453.68 648.245L547.695 707.187V565.385Z" fill="#FF5529"></path> <path d="M516.928 546.592L351.973 585.887L293 678.143H434.878L453.681 648.245L516.928 546.592Z" fill="#FF9640"></path> <path d="M805.809 642.266V552.572L761.366 626.89H745.981L702.392 555.134V643.12H669.914V491.922H698.973L754.528 585.032L810.083 491.922H838.288L839.142 641.411H805.809V642.266Z" fill="#102C53"></path> <path d="M873.328 567.094C873.328 522.674 908.37 489.359 955.378 489.359C1002.39 489.359 1037.43 521.82 1037.43 567.094C1037.43 612.368 1002.39 644.828 955.378 644.828C908.37 644.828 873.328 611.513 873.328 567.094ZM1002.39 567.094C1002.39 538.904 981.873 519.257 955.378 519.257C928.883 519.257 908.37 538.904 908.37 567.094C908.37 595.283 928.883 614.93 955.378 614.93C981.873 614.93 1002.39 595.283 1002.39 567.094Z" fill="#102C53"></path> <path d="M1072.47 491.922H1140.84C1189.56 491.922 1223.75 521.82 1223.75 567.094C1223.75 612.368 1190.42 642.266 1140.84 642.266H1072.47V491.922ZM1139.13 613.222C1169.05 613.222 1188.71 595.283 1188.71 567.094C1188.71 538.05 1169.05 520.965 1139.13 520.965H1107.51V614.076H1139.13V613.222Z" fill="#102C53"></path> <path d="M1346.82 642.266L1310.93 590.158L1275.03 642.266H1234.86L1290.41 566.239L1237.42 492.776H1276.74L1310.93 541.467L1345.11 492.776H1382.72L1330.58 565.385L1386.14 643.12H1346.82V642.266Z" fill="#102C53"></path> </g> <defs> <clipPath id="clip0"> <rect width="1094" height="293" fill="white" transform="translate(293 414.187)"></rect> </clipPath> </defs> </svg> 