<svg width="206" height="56" viewBox="0 0 206 56" fill="none" xmlns="http://www.w3.org/2000/svg">
<g clip-path="url(#clip0_196_43)">
<path d="M0.168823 55.4208V46.325H2.84244C3.5874 46.3106 4.3227 46.4961 4.97257 46.8623C5.59437 47.2162 6.09889 47.7461 6.42335 48.386C6.77323 49.0871 6.94847 49.8631 6.93396 50.6473V51.1119C6.95021 51.901 6.77339 52.682 6.41896 53.3865C6.0928 54.0247 5.58463 54.5507 4.95942 54.897C4.29286 55.2605 3.54379 55.4439 2.78546 55.4299L0.168823 55.4208ZM1.74231 47.5999V54.157H2.77012C3.59412 54.157 4.22673 53.8978 4.66795 53.3798C5.10917 52.8616 5.33415 52.1174 5.34294 51.1471V50.6407C5.34294 49.6542 5.12962 48.9005 4.70301 48.3794C4.2764 47.8583 3.65622 47.5984 2.84244 47.5999H1.74231Z" fill="#00B3E3"/>
<path d="M12.2263 55.4212H10.6594V46.3254H12.2263V55.4212Z" fill="#00B3E3"/>
<path d="M23.2101 54.239C22.8579 54.6869 22.3859 55.0257 21.8492 55.2145C21.217 55.443 20.5487 55.5549 19.8769 55.5447C19.1712 55.5586 18.4751 55.3801 17.8629 55.0268C17.2714 54.6772 16.7981 54.1572 16.5042 53.5342C16.173 52.8302 16.0037 52.0603 16.0089 51.2817V50.5704C16.0089 49.1965 16.3361 48.1234 16.9907 47.3513C17.6452 46.5792 18.5598 46.1924 19.7344 46.1909C20.741 46.1909 21.5446 46.4419 22.1451 46.944C22.7455 47.446 23.102 48.1675 23.2145 49.1084H21.6805C21.5066 48.0148 20.8747 47.4672 19.7848 47.4658C19.4699 47.4474 19.1555 47.5097 18.8711 47.6468C18.5867 47.7839 18.3415 47.9914 18.1587 48.2496C17.7862 48.7532 17.5999 49.4974 17.5999 50.4824V51.1804C17.5999 52.1639 17.8059 52.9264 18.2179 53.4681C18.4169 53.7339 18.6774 53.947 18.9767 54.0889C19.276 54.2309 19.6053 54.2976 19.936 54.2831C20.7425 54.2831 21.3152 54.1002 21.6542 53.7345V51.9532H19.7782V50.7554H23.2101V54.239Z" fill="#00B3E3"/>
<path d="M28.7305 55.4212H27.1636V46.3254H28.7305V55.4212Z" fill="#00B3E3"/>
<path d="M39.2955 47.6004H36.4685V55.4212H34.9125V47.6004H32.1096V46.3254H39.2955V47.6004Z" fill="#00B3E3"/>
<path d="M46.67 53.3139H43.1636L42.4294 55.4322H40.7946L44.2133 46.3362H45.6246L49.0521 55.4322H47.4041L46.67 53.3139ZM43.6019 52.039H46.2316L44.9168 48.2672L43.6019 52.039Z" fill="#00B3E3"/>
<path d="M53.8688 54.1575H57.9782V55.4212H52.2955V46.3254H53.8688V54.1575Z" fill="#00B3E3"/>
<path d="M73.5203 54.239C73.1682 54.6869 72.6958 55.0257 72.1593 55.2139C71.527 55.443 70.8587 55.5549 70.1867 55.5447C69.4808 55.5586 68.7839 55.3796 68.1707 55.0268C67.5839 54.6772 67.1137 54.161 66.8187 53.543C66.4893 52.8385 66.3204 52.0688 66.3257 51.2905V50.5793C66.3257 49.2053 66.6529 48.1322 67.3075 47.3601C67.962 46.588 68.8755 46.2012 70.049 46.1997C71.0568 46.1997 71.857 46.4507 72.4485 46.9528C73.04 47.4548 73.3969 48.1763 73.5182 49.1172H71.9841C71.8088 48.0236 71.1759 47.4761 70.0861 47.4746C69.7763 47.4574 69.467 47.5183 69.1864 47.6517C68.9057 47.7852 68.6632 47.9869 68.4799 48.2386C68.1145 48.7495 67.9244 49.4974 67.9101 50.4824V51.1804C67.9101 52.1638 68.1167 52.9264 68.5302 53.4681C68.7288 53.734 68.9894 53.947 69.2886 54.0889C69.5883 54.2309 69.9177 54.2976 70.2481 54.2831C71.0531 54.2831 71.625 54.1002 71.9639 53.7345V51.9532H70.0993V50.7554H73.5309L73.5203 54.239Z" fill="#00B3E3"/>
<path d="M80.7303 51.9226H78.9769V55.4212H77.4036V46.3254H80.5878C81.6321 46.3254 82.436 46.5611 82.9984 47.0323C83.5608 47.5035 83.8441 48.1846 83.8484 49.0756C83.8685 49.6196 83.7149 50.1557 83.4104 50.6059C83.0995 51.03 82.6764 51.358 82.1898 51.5527L84.2233 55.34V55.4212H82.5382L80.7303 51.9226ZM78.9769 50.6477H80.5942C81.0443 50.6749 81.4876 50.5311 81.8365 50.2448C81.9869 50.1053 82.105 49.9345 82.1829 49.7443C82.2602 49.5541 82.2957 49.3492 82.2861 49.1439C82.2988 48.937 82.2687 48.7297 82.1972 48.5353C82.1262 48.3408 82.015 48.1634 81.872 48.0143C81.5283 47.7233 81.0867 47.5759 80.6381 47.6025H78.9769V50.6477Z" fill="#00B3E3"/>
<path d="M94.6615 51.1123C94.6785 51.9182 94.5217 52.7182 94.2013 53.4573C93.9244 54.0901 93.4668 54.6268 92.8864 54.9984C92.2912 55.3517 91.6129 55.5378 90.9218 55.5378C90.2307 55.5378 89.5523 55.3517 88.9571 54.9984C88.3735 54.6263 87.9112 54.0907 87.6268 53.4573C87.3017 52.7332 87.1391 51.9461 87.1513 51.1519V50.6389C87.1349 49.8307 87.2948 49.0288 87.62 48.2895C87.8969 47.652 88.3539 47.1106 88.9349 46.7327C89.5296 46.3802 90.2074 46.1943 90.8974 46.1943C91.588 46.1943 92.2658 46.3802 92.86 46.7327C93.4409 47.1041 93.8984 47.6406 94.1749 48.274C94.5 49.0073 94.6615 49.8032 94.6483 50.6058L94.6615 51.1123ZM93.0882 50.6389C93.0882 49.6304 92.8986 48.8576 92.5205 48.3203C92.3331 48.0705 92.091 47.8678 91.8125 47.7282C91.5345 47.5885 91.2273 47.5159 90.9159 47.5159C90.6051 47.5159 90.2979 47.5885 90.0199 47.7282C89.7414 47.8678 89.4988 48.0705 89.3119 48.3203C88.9285 48.8576 88.7336 49.6128 88.7246 50.5926V51.1123C88.7246 52.1119 88.9184 52.8848 89.3055 53.4308C89.484 53.6925 89.7255 53.9046 90.0078 54.0476C90.2895 54.1902 90.603 54.259 90.9186 54.2477C91.2316 54.2622 91.5435 54.1966 91.8247 54.0568C92.1053 53.917 92.3463 53.7077 92.5248 53.4485C92.9018 52.9156 93.0893 52.1369 93.0882 51.1123V50.6389Z" fill="#00B3E3"/>
<path d="M105.214 53.1711L106.605 46.3254H108.167L106.077 55.4212H104.573L102.849 48.7806L101.096 55.4212H99.5859L97.4973 46.3254H99.0553L100.462 53.1513L102.189 46.3254H103.504L105.214 53.1711Z" fill="#00B3E3"/>
<path d="M118.336 47.6004H115.514V55.4212H113.953V47.6004H111.155V46.3254H118.336V47.6004Z" fill="#00B3E3"/>
<path d="M128.844 55.4212H127.277V51.3854H123.23V55.4212H121.656V46.3254H123.23V50.1105H127.277V46.3254H128.844V55.4212Z" fill="#00B3E3"/>
<path d="M139.666 52.0481V55.4212H138.093V46.3254H141.555C142.566 46.3254 143.37 46.5904 143.965 47.1204C144.26 47.3824 144.492 47.7067 144.646 48.07C144.801 48.4332 144.873 48.8263 144.857 49.2209C144.857 50.1134 144.565 50.8078 143.981 51.3039C143.397 51.8001 142.581 52.0481 141.533 52.0481H139.666ZM139.666 50.7732H141.555C142.016 50.8053 142.472 50.6641 142.835 50.3769C142.987 50.2294 143.104 50.0503 143.18 49.8521C143.256 49.6539 143.288 49.4415 143.273 49.2297C143.284 49.0137 143.251 48.7977 143.176 48.595C143.1 48.3923 142.984 48.2075 142.835 48.0517C142.497 47.7485 142.055 47.5903 141.603 47.6113H139.666V50.7732Z" fill="#00B3E3"/>
<path d="M152.744 53.3139H149.238L148.506 55.4322H146.869L150.29 46.3362H151.701L155.127 55.4322H153.485L152.744 53.3139ZM149.677 52.039H152.306L150.992 48.2672L149.677 52.039Z" fill="#00B3E3"/>
<path d="M161.695 51.9226H159.941V55.4212H158.368V46.3254H161.552C162.595 46.3254 163.404 46.5611 163.963 47.0323C164.521 47.5035 164.815 48.1839 164.815 49.0756C164.834 49.6195 164.681 50.1553 164.377 50.6059C164.066 51.03 163.643 51.358 163.156 51.5527L165.19 55.34V55.4212H163.503L161.695 51.9226ZM159.941 50.6477H161.559C162.009 50.6749 162.452 50.5311 162.801 50.2448C162.95 50.1043 163.066 49.933 163.141 49.7429C163.217 49.5528 163.25 49.3483 163.24 49.1439C163.253 48.937 163.222 48.7297 163.151 48.5353C163.079 48.3408 162.969 48.1634 162.825 48.0143C162.482 47.7233 162.04 47.5759 161.592 47.6025H159.931L159.941 50.6477Z" fill="#00B3E3"/>
<path d="M175.019 47.6004H172.196V55.4212H170.636V47.6004H167.838V46.3254H175.019V47.6004Z" fill="#00B3E3"/>
<path d="M185.521 55.4212H183.949L179.913 48.9677V55.4212H178.339V46.3254H179.913L183.96 52.8034V46.3254H185.521V55.4212Z" fill="#00B3E3"/>
<path d="M194.839 51.3611H191.113V54.1575H195.459V55.4212H189.542V46.3254H195.417V47.6004H191.122V50.1105H194.847L194.839 51.3611Z" fill="#00B3E3"/>
<path d="M202.196 51.9226H200.442V55.4212H198.869V46.3254H202.053C203.096 46.3254 203.9 46.5611 204.464 47.0323C205.028 47.5035 205.312 48.1846 205.316 49.0756C205.335 49.6195 205.182 50.1553 204.878 50.6059C204.567 51.03 204.144 51.358 203.657 51.5527L205.691 55.34V55.4212H204.004L202.196 51.9226ZM200.442 50.6477H202.06C202.51 50.6749 202.953 50.5311 203.302 50.2448C203.451 50.1044 203.567 49.9331 203.642 49.743C203.718 49.5528 203.751 49.3484 203.74 49.1439C203.753 48.9372 203.723 48.7302 203.652 48.5358C203.581 48.3414 203.471 48.1638 203.328 48.0143C202.985 47.7227 202.542 47.5753 202.092 47.6025H200.434L200.442 50.6477Z" fill="#00B3E3"/>
<path d="M5.00974 5.87256L19.2544 24.8571V5.87256H24.3825V33.6162H19.3706L5.16753 14.6801V33.6162H0V5.87256H5.00974Z" fill="#00B3E3"/>
<path d="M54.4846 5.87256V10.5097H39.5344V17.3663H52.9464V22.0035H39.5344V28.979H54.958V33.6162H34.2551V5.87256H54.4846Z" fill="#00B3E3"/>
<path d="M83.108 5.87256V10.5978H74.5085V33.6162H69.1832V10.5978H60.5836V5.87256H83.108Z" fill="#00B3E3"/>
<path d="M111.915 15.4243C111.915 21.7635 107.931 25.4516 100.988 25.4516H94.9597V33.6162H89.6672V5.87256H100.988C107.931 5.87256 111.915 9.32071 111.915 15.4243ZM106.905 15.5828C106.905 12.1743 104.657 10.5185 100.712 10.5185H94.9597V20.7748H100.719C104.657 20.7748 106.905 19.0684 106.905 15.5828Z" fill="#00B3E3"/>
<path d="M139.585 5.87256V10.5097H124.634V17.3663H138.044V22.0035H124.634V28.979H140.058V33.6162H119.347V5.87256H139.585Z" fill="#00B3E3"/>
<path d="M199.217 33.6162L190.62 21.726L186.202 26.6406V33.6162H180.914V5.87256H186.202V19.4273L198.694 5.87256H204.847L194.326 17.602L205.608 33.6162H199.217Z" fill="#00B3E3"/>
<path d="M160.485 5.98909L168.44 21.9681L174.252 33.638H146.711L152.523 21.9681L160.485 5.98909ZM160.485 0L158.092 4.79128L150.139 20.7703L144.327 32.4402L142.398 36.3177H178.558L176.63 32.4402L170.818 20.7703L162.863 4.79128L160.485 0Z" fill="#00B3E3"/>
<path d="M164.342 20.0768L160.478 12.3108L156.612 20.0768H164.342Z" fill="#00B3E3"/>
<path d="M165.788 22.981H155.166L151.287 30.7756H169.667L165.788 22.981Z" fill="#00B3E3"/>
</g>
<defs>
<clipPath id="clip0_196_43">
<rect width="206" height="55.9276" fill="white"/>
</clipPath>
</defs>
</svg>
