<?xml version="1.0" encoding="UTF-8"?> <svg xmlns="http://www.w3.org/2000/svg" id="Layer_1" data-name="Layer 1" viewBox="0 0 567 226.91"> <defs> <style>.cls-1{fill:#82c393;}.cls-2{fill:#31a753;}.cls-3{fill:#5eb573;}.cls-4{fill:#1f8e3e;}.cls-5{fill:#fff;}.cls-6{fill:#e8e0e0;}.cls-7{fill:#cd201f;}</style> </defs> <title>для-лендинга-доставка-еды</title> <g id="Display_Video360_icon" data-name="Display&amp;Video360_icon"> <path class="cls-1" d="M478.26,88.93a28.17,28.17,0,0,1,28.14,48.81L360,222.15a28.17,28.17,0,1,1-28.14-48.81Z"></path> <path class="cls-2" d="M373.17,28.63A28,28,0,0,0,339.29,1.07c-13.2,2.58-22.1,15.22-22.1,28.71V197.46l56,.86Z"></path> <path class="cls-3" d="M479.12,137.74c13.49,7.75,31.58,1.43,38.47-10.34a28.07,28.07,0,0,0-10.05-38.47L360,4.51c-14.65-8.32-30.73-3.15-38.76,10.34a28.15,28.15,0,0,0,10.33,38.47Z"></path> <path class="cls-1" d="M506.4,137.74,373.17,212.1v-64l106-59.14a28.83,28.83,0,0,1,41.34,15.5C524.48,117.35,518.17,131.13,506.4,137.74Z"></path> <circle class="cls-4" cx="345.04" cy="198.6" r="27.85"></circle> </g> <path class="cls-5" d="M198.14,110.89c-23-12.3-45-23.6-67.55-35.4v70.6c23.69-12.88,48.67-24.68,67.65-35.2Z"></path> <path class="cls-6" d="M198.14,110.89c-23-12.3-67.55-35.4-67.55-35.4L190,115.41l8.16-4.52Z"></path> <path class="cls-7" d="M134.92,201.35c-47.79-.88-64.11-1.67-74.15-3.73a32.67,32.67,0,0,1-17-8.85c-3.34-3.35-6-8.45-8.06-15.54-1.77-5.9-2.46-10.81-3.44-22.81-1.51-27.08-1.86-49.22,0-73.95,1.53-13.66,2.28-29.88,12.48-39.34a33.58,33.58,0,0,1,16.72-8.45c9.83-1.87,51.72-3.34,95.09-3.34s85.25,1.47,95.1,3.34c7.86,1.48,15.23,5.9,19.56,11.6,9.31,14.65,9.48,32.86,10.42,47.11.39,6.78.39,45.33,0,52.12-1.47,22.51-2.65,30.48-6,38.73-2.07,5.22-3.84,8-6.89,11a33.07,33.07,0,0,1-17.5,9c-41.36,3.11-76.48,3.78-116.33,3.14Zm63.33-90.46c-23-12.3-45-23.7-67.56-35.5V146c23.7-12.89,48.68-24.69,67.65-35.21l-.09.1Z"></path> </svg> 