<svg width="24" height="24" viewBox="0 0 24 24" fill="none" xmlns="http://www.w3.org/2000/svg">
<path d="M20.3333 2H3.66668C2.73332 2 2 2.73332 2 3.66668V20.3334C2 21.2667 2.73332 22 3.66668 22H11.3334H15.3334H20.3334C21.2667 22 22 21.2667 22 20.3333V3.66668C22 2.73332 21.2667 2 20.3333 2ZM14.6667 21.3334H12V21.3333V14.6667H9.33332V12H12V9.66668C12 7.76668 13.4667 6.16668 15.3333 6H18.3333V8.66668H15.6666C15.1 8.66668 14.6666 9.1 14.6666 9.66668V12H18V14.6667H14.6667V21.3334Z" fill="white"/>
</svg>
