<svg width="24" height="24" viewBox="0 0 24 24" fill="none" xmlns="http://www.w3.org/2000/svg">
<path fill-rule="evenodd" clip-rule="evenodd" d="M3 2C2.44775 2 2 2.44769 2 3V21C2 21.5523 2.44775 22 3 22H21C21.5522 22 22 21.5523 22 21V3C22 2.44769 21.5522 2 21 2H3ZM5.56006 5.53668C5.90991 5.18671 6.37671 5 6.88989 5C7.37988 5 7.84668 5.18665 8.19678 5.56C8.54663 5.90997 8.75659 6.37665 8.7334 6.86664C8.7334 7.38 8.52344 7.84668 8.17334 8.19666C7.82324 8.54663 7.38013 8.73334 6.91333 8.73334H6.8667C6.3999 8.75665 5.90991 8.54663 5.56006 8.19666C5.20996 7.84668 5 7.38 5 6.86664C5 6.37665 5.18677 5.90997 5.56006 5.53668ZM7.80005 9.20001H5.91016C5.53687 9.20001 5.2334 9.5033 5.2334 9.90002V18.0667C5.2334 18.44 5.56006 18.7667 5.93335 18.7667H7.80005C8.17334 18.7667 8.5 18.44 8.5 18.09V9.90002C8.5 9.52667 8.17334 9.20001 7.80005 9.20001ZM15.2434 8.96661H15.7334C17.5767 8.96661 19 10.4133 19 12.28V18.3C19 18.5333 18.7666 18.7666 18.5332 18.7666H16.2C15.9668 18.7666 15.7334 18.5333 15.7334 18.3V13.2833C15.7334 12.8633 15.6399 12.5366 15.4067 12.3266C15.1499 12.0699 14.8 11.9299 14.4268 11.9299C13.7034 11.9299 13.1433 12.5366 13.1433 13.3066V18.3466C13.1433 18.6033 12.8867 18.7666 12.6768 18.7666H10.1101C9.8999 18.7666 9.64331 18.6033 9.64331 18.3466V9.64331C9.64331 9.38666 9.8999 9.19995 10.1101 9.19995H12.4434C12.6768 9.19995 12.9099 9.43329 12.9099 9.66663V9.99329C13.47 9.36334 14.3333 8.96661 15.2434 8.96661Z" fill="white"/>
</svg>
