<svg fill="none" height="186" width="401" xmlns="http://www.w3.org/2000/svg"><mask id="a" height="186" maskUnits="userSpaceOnUse" width="136" x="0" y="0"><path clip-rule="evenodd" d="M135.126 185.771l-67.081-19.739L.52 185.771V.96h134.606z" fill="#d54b4d" fill-rule="evenodd"/></mask><g clip-rule="evenodd" fill-rule="evenodd"><path d="M235.135 47.798h-9.004c-3.262-9.909-6.542-19.835-9.891-30.022h9.256c1.705 6.583 3.413 13.168 5.124 19.756h.635c1.662-6.524 3.332-13.049 5.02-19.739h8.551c1.74 6.62 3.48 13.302 5.22 20.01h.478c1.688-6.69 3.376-13.372 5.081-20.097h8.908c-3.401 10.187-6.707 20.122-10.03 30.092h-9.048c-1.609-6.09-3.184-12.084-4.767-18.086-.2 0-.383-.07-.574-.105a77676.62 77676.62 0 01-4.959 18.19zm-58.782-9.387c1.827 3.027 3.645 6.029 5.637 9.343h-9.691c-1.305-2.514-2.688-5.15-4.019-7.725a14.848 14.848 0 00-4.68.044v7.725h-8.7V17.689c6.325.218 12.597-.87 18.695.67 7.786 1.983 10.335 12.18 4.689 18.12-.583.61-1.226 1.201-1.931 1.932zm-12.745-13.867c.044 2.95-.261 5.646.226 8.7 2.958-.461 6.142 1.174 8.248-1.74a4.438 4.438 0 00-.14-5.524c-2.27-2.732-5.324-1.384-8.334-1.436zm173.519 68.761c4.28-10.196 8.413-20.061 12.562-29.988h9.135c4.001 9.883 8.02 19.783 12.179 29.979h-9.213c-.609-1.421-1.25-2.9-1.922-4.437h-11.962c-.644 1.505-1.253 2.95-1.914 4.506a60.61 60.61 0 01-8.865-.06zm17.147-20.583l-.583.087c-1.061 2.905-2.114 5.82-3.306 9.09 2.61.07 4.724.41 7.09-.278a3387.06 3387.06 0 01-3.201-8.9zM217.666 47.798h-9.212l-1.888-4.454h-11.805c-1.183 1.226-1.096 3.105-2.288 4.471h-8.7c4.272-10.213 8.413-20.13 12.571-30.065h9.1c4.019 9.856 8.073 19.817 12.222 30.048zm-13.492-11.649l-3.228-8.978h-.565c-1.053 2.95-2.123 5.907-3.245 9.03 2.331.392 4.713.374 7.038-.052zm92.231 11.649h-9.004c-1.192-1.262-1.139-3.14-2.314-4.515h-11.796c-.635 1.487-1.244 2.923-1.905 4.437h-8.856l12.544-29.935h9.143c3.985 9.848 8.012 19.756 12.188 30.013zM279.711 27.18l-.583.07c-1.053 2.905-2.114 5.82-3.271 9.03 2.61.209 4.689.443 7.047-.226a297.888 297.888 0 01-3.193-8.874zm119.252 39.27c-.948 1.983-1.931 4.027-2.845 5.95-1.209.295-1.853-.418-2.61-.748-2.314-1.01-4.637-2.045-7.203-2.175-1.14-.07-2.331.052-2.671 1.409-.339 1.357.566 2.053 1.645 2.514 1.078.461 2.218.792 3.331 1.192 1.74.6 3.48 1.114 5.124 1.827 3.55 1.54 5.394 4.193 5.281 8.151-.113 3.959-2.027 6.69-5.559 8.056-7.412 2.862-14.197.93-20.948-3.262l3.201-6.664a37.813 37.813 0 005.846 3.27 13.302 13.302 0 005.724 1.236c1.253-.087 2.401-.504 2.61-1.931s-.722-2.062-1.818-2.445c-2.758-.957-5.576-1.74-8.299-2.757a7.677 7.677 0 01-5.333-6.899 8.57 8.57 0 014.011-8.3c.139-.086.278-.165.4-.252 5.254-3.08 15.493-2.218 20.113 1.827zM211.42 85.606v7.699h-8.612V63.23c6.089.183 12.109-.739 18.008.6 5.054 1.15 7.525 5.073 7.351 10.936-.157 5.428-3.123 9.082-8.134 10.24-2.714.617-5.49.2-8.613.6zm.192-7.004c2.862-.087 5.715 1.053 7.62-1.74a4.399 4.399 0 00-.078-5.332c-2.009-2.61-4.811-1.497-7.542-1.514zm-38.904 14.763h-9.222c-3.732-9.96-7.455-19.887-11.248-30.039h9.274l6.516 19.922h.678a7161.71 7161.71 0 006.455-19.896h8.926a31873.104 31873.104 0 00-11.379 30.013zm65.507-30.021h9.308c2.146 6.6 4.309 13.22 6.49 19.86l.652.07c2.158-6.594 4.306-13.188 6.516-19.922h8.9a33104.411 33104.411 0 00-11.388 30.005h-9.221c-3.689-9.892-7.43-19.809-11.257-30.013zm76.146.008h8.699v22.55h12.179c.522 2.61.261 4.906.209 7.394h-21.087zm-25.568.009h8.586v22.323c4.176.67 8.195-.07 12.18.478.565 2.366.235 4.611.2 7.09h-20.975c.009-9.97.009-19.86.009-29.89zm11.257-45.594h8.421v30.03c-2.801.24-5.615.278-8.421.114zm-25.967 45.585h8.499V93.34c-2.83.2-5.67.2-8.499 0zm-86.464 0h8.49v29.996a61.397 61.397 0 01-8.49 0z" fill="#fff"/><path d="M135.126 185.771l-67.081-19.739L.52 185.771V.96h134.606z" fill="#d54b4d"/></g><g fill="#c44546" mask="url(#a)"><path d="M74.378 184.683h-6.307L3.87 120.395l3.15-3.158zm-13.562 0h-6.307l-57.425-57.494 3.158-3.158zm-13.554 0h-6.307l-50.648-50.709 3.158-3.158zm-60.582-47.072l47.01 47.072h-6.297l-40.47-40.522-12.954 12.954v-6.786z"/><path d="M-12.816 151.695l32.953 32.988H13.83l-26.403-26.437-13.458 13.475v-6.794z"/><path d="M.268 184.683l-12.327-12.344-6.786 6.785-3.384-3.392 9.926-9.944 18.878 18.895zM.18 15.94l3.393 3.385-23.497 23.523-6.107-6.107v-6.307l5.864 5.872zm73.206-1.261L54.51-4.225h6.307L73.152 8.12l6.776-6.786 3.393 3.393z"/><path d="M73.9 28.763L40.955-4.225h6.307l26.394 26.438 13.562-13.58 3.393 3.401z"/><path d="M74.413 42.856l-47.02-47.08h6.298l40.478 40.53 20.34-20.374 3.392 3.401zm-6.786 6.786L13.83-4.225h6.307l50.64 50.71zm-6.777 6.794L.268-4.224h6.307L64 53.277zm-6.785 6.786l-67.36-67.447h6.307l64.21 64.289zm47.29 54.015l61.288 61.365v6.081h-.235l-64.202-64.288zm53.797 67.446h-6.307L91.42 127.189l3.158-3.158zm-13.562 0h-6.298l-50.649-50.709 3.15-3.158zm-19.861 0l-40.478-40.522-20.34 20.366-3.392-3.393 23.497-23.523 47.012 47.072z"/><path d="M108.167 184.683l-26.403-26.437-13.562 13.58-3.393-3.393 16.711-16.738 32.954 32.988z"/><path d="M94.604 184.683l-12.327-12.344-6.785 6.785-3.393-3.392 9.935-9.944 18.877 18.895z"/><path d="M87.349 184.683h-6.307l-1.653-1.653 3.158-3.157zm34.38-188.908h6.299l34.615 34.659v6.307zm-13.562 0h6.307l48.169 48.238v4.942l-.679.687zm47.011 60.661L94.604-4.224h6.307l57.425 57.502zm-6.776 6.786L81.042-4.225h6.307l64.211 64.289zm14.241-7.464v6.316l-32.928 32.962-3.158-3.15z"/><path d="M162.643 69.329v6.316l-33.441 33.484-9.935-9.944 3.393-3.401 6.777 6.794z"/><path d="M162.642 82.917v6.307l-33.953 33.998-16.712-16.738 3.393-3.393 13.562 13.571z"/><path d="M162.643 96.489v6.315l-34.459 34.502-23.497-23.523 3.393-3.393 20.339 20.366zm0 13.579v6.316l-27.682 27.708-3.149-3.149zM35.379 95.044l69.012-69.1-3.158-3.157-69.004 69.09z"/><path d="M34.865 109.129l76.303-76.399-3.149-3.149-72.91 72.997-6.786-6.794-3.392 3.401z"/><path d="M34.36 123.222l83.585-83.697-3.149-3.158-80.2 80.296-13.563-13.572-3.393 3.393z"/><path d="M141.677 70.077l3.393-3.401-23.489-23.524-87.499 87.604-20.339-20.366-3.393 3.393 23.497 23.523 87.491-87.603z"/><path d="M134.387 77.376l3.393-3.402-16.712-16.729-83.593 83.689 3.15 3.158 80.199-80.296z"/><path d="M127.097 84.675l3.393-3.402-9.935-9.943-76.303 76.398 3.158 3.158 72.91-73.006z"/><path d="M54.187 157.672l69.012-69.091-3.157-3.158-69.004 69.091zM6.897 22.787l3.158 3.158-36.086 36.129v-6.316zm6.785 6.786l3.15 3.157-42.863 42.915v-6.316zm6.777 6.794l3.15 3.158-49.64 49.7v-6.316zm6.786 6.785l23.488 23.532-3.393 3.393-20.339-20.374-53.032 53.101v-6.316z"/><path d="M26.731 57.245l16.712 16.73-3.393 3.4-13.554-13.579-52.527 52.588v-6.316z"/><path d="M26.218 71.33l9.935 9.943-3.393 3.402-6.777-6.795-52.014 52.075v-6.307z"/><path d="M25.705 85.423l3.158 3.158-54.894 54.954v-6.316z"/></g><path clip-rule="evenodd" d="M19.39 17.515h21.478v18.173h16.25V17.541h21.505v18.182h16.173V17.585h21.47v82.836H94.813c6.281 10.9 12.31 21.339 18.486 32.074H88.576c-6.09-10.5-12.284-21.261-18.46-31.926H41.041v31.926H19.667c-.391-38.286-.26-76.528-.278-114.98zm75.336 40.209H41.12v21.061h53.606z" fill="#fff" fill-rule="evenodd"/><path d="M162.582 109.729v7.829l6.524-7.829h6.264l-7.969 9.613 8.978 10.309h-6.786l-7.011-8.082v8.082h-5.368v-19.922zm21.252 0v19.922h-5.428v-19.922zm10.883 20.096c-2.801 0-5.628-.113-6.846-.174v-19.922c1.07 0 3.984-.148 6.812-.148 7.829 0 11.892 3.663 11.892 10.109s-4.028 10.135-11.858 10.135zm.748-15.798c-.869 0-1.592.06-2.192.113v11.083c.739.096 1.483.145 2.227.148 3.176 0 5.455-1.74 5.455-5.716 0-3.836-2.48-5.628-5.49-5.628zm21.288-4.672a8.996 8.996 0 016.873 2.949l-3.071 2.975a4.428 4.428 0 00-3.55-1.844c-1.444 0-2.392.635-2.392 1.67 0 1.27 1.618 1.879 3.48 2.61 2.61 1.122 5.628 2.227 5.628 6.09 0 4.68-4.306 6.263-7.533 6.263a9.458 9.458 0 01-8.056-3.923l3.375-2.688c.696 1.07 2.427 2.688 4.446 2.688 1.74 0 2.653-.696 2.653-1.879 0-1.331-1.818-1.931-3.749-2.827-2.689-1.245-5.342-2.315-5.342-6.09 0-3.776 3.341-5.994 7.238-5.994zm17.33.374c2.253-.061 4.21-.113 6.785-.113 5.542 0 8.7 2.105 8.7 6.759 0 3.811-2.28 6.812-7.447 6.812-.922 0-1.74-.061-2.654-.148v6.612h-5.341v-19.922zm5.219 9.265a17.19 17.19 0 002.279.113c1.645 0 3.028-.748 3.028-2.653 0-1.906-1.27-2.61-3.088-2.61-.87 0-1.74.061-2.228.113v5.054zm8.552 10.657c3.201-6.673 6.811-13.972 10.161-20.444h.574c3.375 6.464 6.959 13.684 10.222 20.444h-5.89l-1.183-2.61h-7.012l-1.07 2.61zm12.649-6.264l-2.227-5.219-2.393 5.219zm10.508-13.658c1.592-.061 4.768-.148 6.847-.148 6.377 0 8.578 2.801 8.578 6.212a5.692 5.692 0 01-3.089 5.367l5.568 8.491h-5.89l-4.706-7.595h-1.07a8.111 8.111 0 01-.948-.061v7.621h-5.281v-19.887zm5.281 8.578c.612.069 1.228.099 1.844.087 1.74 0 2.976-.722 2.976-2.393 0-1.67-1.244-2.366-2.976-2.366-.548 0-1.409.061-1.844.087zm20.131-8.578v7.829l6.524-7.829h6.264l-7.969 9.613 8.978 10.309h-6.786l-7.011-8.082v8.082h-5.403v-19.922zm42.444 11.631a33.99 33.99 0 01-2.949 4.132l2.801 4.159H333.5l-1.097-1.47a9.167 9.167 0 01-5.576 1.905c-5.655 0-7.995-3.48-7.995-7.047 0-3.201 1.592-5.515 4.855-7.099l-4.133-5.889.087-.313h14.789v4.349h-6.463l5.515 7.83a32.608 32.608 0 001.557-2.862zm-12.901-2.227a3.853 3.853 0 00-2.654 3.837 3.194 3.194 0 002.089 3.138c.422.154.873.217 1.322.185a4.901 4.901 0 003.288-1.296zm29.778-9.778a9.002 9.002 0 016.873 2.949l-3.115 2.975a4.425 4.425 0 00-3.549-1.844c-1.444 0-2.392.635-2.392 1.67 0 1.27 1.618 1.879 3.479 2.61 2.654 1.122 5.629 2.227 5.629 6.09 0 4.68-4.306 6.263-7.534 6.263a9.458 9.458 0 01-8.055-3.923l3.358-2.662c.696 1.07 2.427 2.688 4.445 2.688 1.74 0 2.61-.696 2.61-1.879 0-1.331-1.818-1.931-3.75-2.827-2.688-1.244-5.341-2.314-5.341-6.09s3.436-6.02 7.342-6.02zm10.091.374c2.254-.061 4.22-.113 6.786-.113 5.542 0 8.699 2.105 8.699 6.759 0 3.811-2.279 6.812-7.446 6.812-.922 0-1.74-.061-2.61-.148v6.612h-5.429zm5.22 9.265a17.19 17.19 0 002.279.113c1.645 0 3.028-.748 3.028-2.653 0-1.906-1.27-2.61-3.089-2.61-.869 0-1.739.061-2.227.113v5.054zm8.508 10.657c3.201-6.673 6.812-13.972 10.161-20.444h.574c3.375 6.464 6.96 13.684 10.222 20.444h-5.89l-1.183-2.61h-7.011l-1.07 2.61zm12.649-6.264l-2.227-5.219-2.392 5.219z" fill="#c1ce47"/></svg>