<?xml version="1.0" encoding="UTF-8"?> <svg xmlns="http://www.w3.org/2000/svg" width="1680" height="1121" viewBox="0 0 1680 1121" fill="none"> <rect width="1680" height="1120" transform="translate(0 0.68689)" fill="white"></rect> <circle cx="1303.71" cy="301.837" r="35.5039" fill="#DEF7FF"></circle> <circle cx="161.547" cy="153.316" r="21.8484" fill="#DEF7FF"></circle> <circle cx="1004.84" cy="916.4" r="27" fill="#DEF7FF"></circle> <g clip-path="url(#clip0)"> <path fill-rule="evenodd" clip-rule="evenodd" d="M714.741 554.057C705.491 554.057 697.982 561.575 697.982 570.838C697.982 580.121 705.491 587.632 714.741 587.632C723.997 587.632 731.496 580.121 731.496 570.838C731.496 561.575 723.997 554.057 714.741 554.057ZM1396.61 541.734C1407.59 541.734 1415.63 547.897 1420.9 554.057V524.299C1412.27 518.435 1401.87 516.087 1392.82 516.087C1365.05 516.087 1340.91 536.019 1340.91 570.309C1340.91 603.143 1362.85 624.545 1393.26 624.545C1402.03 624.545 1411.68 623.214 1420.9 616.922V587.738C1415.63 593.172 1407.31 598.894 1396.61 598.894C1380.24 598.894 1370.44 586.735 1370.44 571.19C1370.44 554.335 1380.82 541.734 1396.61 541.734ZM1344.05 519.024H1310.42L1279.55 562.103V519.024H1250.9L1250.91 621.611H1279.55V577.489L1309.23 621.611H1345.08L1305.15 568.7L1344.05 519.024ZM1166.26 580.579V519.024H1138.62V621.611H1166.7L1206.33 560.054V621.611H1233.97V519.024H1205.89L1166.26 580.579ZM1083.21 565.18H1075.03V541.596H1083.21C1095.49 541.596 1097.24 548.182 1097.24 553.315C1097.24 557.709 1095.93 565.18 1083.21 565.18ZM1089.49 519.024H1046.36V621.611H1075.03V587.738H1089.49C1118.45 587.738 1126.79 567.538 1126.79 553.315C1126.79 539.241 1118.6 519.024 1089.49 519.024ZM960.965 543.635H983.471V621.611H1012.14V543.635H1034.66V519.024H960.965V543.635ZM881.546 580.579V519.024H853.915V621.611H882L921.613 560.054V621.611H949.257V519.024H921.187L881.546 580.579ZM796.151 601.08H783.871V579.545H796.151C805.221 579.545 810.489 582.188 810.489 590.255C810.489 598.454 805.079 601.08 796.151 601.08ZM798.936 559.027H783.871V543.635H830.811V519.024H755.212L755.209 621.611L798.936 621.611C806.384 621.611 839.148 621.896 839.148 589.811C839.148 558.881 806.685 559.027 798.936 559.027ZM594.793 570.309C594.793 603.143 616.727 624.545 647.141 624.545C655.925 624.545 665.573 623.214 674.789 616.922V587.738C669.509 593.172 661.175 598.894 650.505 598.894C634.122 598.894 624.331 586.735 624.331 571.19C624.331 554.335 634.71 541.734 650.505 541.734C661.469 541.734 669.509 547.897 674.789 554.057V524.299C666.141 518.435 655.769 516.087 646.702 516.087C618.915 516.087 594.793 536.019 594.793 570.309ZM534.783 542.615H550.44V621.611H576.912V519.024H534.783V542.615Z" fill="#231F20"></path> <path fill-rule="evenodd" clip-rule="evenodd" d="M371.044 447.187C362.659 447.187 354.505 448.132 346.648 449.881V560.057C346.648 573.558 357.632 584.569 371.108 584.569C384.577 584.569 395.558 573.558 395.558 560.064C395.558 547.094 385.446 536.449 372.734 535.602V515.982C396.224 516.835 415.126 536.31 415.126 560.064C415.126 584.356 395.352 604.183 371.108 604.183C346.854 604.183 327.083 584.356 327.083 560.057V456.115C324.304 457.297 321.589 458.608 318.929 460.018V560.057C318.932 588.852 342.375 612.335 371.108 612.335C399.845 612.335 423.277 588.852 423.277 560.064C423.277 531.811 400.727 508.674 372.734 507.803V488.189C411.499 489.067 442.835 521.016 442.835 560.064C442.835 599.663 410.613 631.948 371.108 631.948C331.593 631.948 299.361 599.663 299.361 560.057V473.028C274.41 493.705 258.5 524.973 258.5 559.972C258.5 622.262 308.888 672.771 371.047 672.771C433.217 672.771 483.591 622.262 483.591 559.972C483.591 497.683 433.217 447.187 371.044 447.187Z" fill="#D91935"></path> </g> <defs> <clipPath id="clip0"> <rect width="1163" height="227" fill="white" transform="translate(258.5 447.187)"></rect> </clipPath> </defs> </svg> 