<svg width="24" height="24" viewBox="0 0 24 24" fill="none" xmlns="http://www.w3.org/2000/svg">
<mask id="mask0_129_31" style="mask-type:alpha" maskUnits="userSpaceOnUse" x="2" y="2" width="21" height="20">
<path fill-rule="evenodd" clip-rule="evenodd" d="M5.09251 2.06305C3.54034 2.34384 2.3379 3.5551 2.06653 5.11121C1.97782 5.61988 1.97782 18.3757 2.06653 18.8843C2.34001 20.4527 3.54733 21.66 5.11566 21.9335C5.62433 22.0222 18.3802 22.0222 18.8888 21.9335C20.4572 21.66 21.6645 20.4527 21.938 18.8843C22.0267 18.3757 22.0267 5.61988 21.938 5.11121C21.6645 3.54288 20.4572 2.33556 18.8888 2.06207C18.4107 1.97868 5.55386 1.97962 5.09251 2.06305ZM15.3794 7.11829C15.7401 7.22956 16.086 7.42477 16.35 7.66608L16.5649 7.86238L16.8896 7.77981C17.2679 7.68361 17.6991 7.51714 18.0439 7.33415C18.1782 7.26294 18.2879 7.21258 18.2879 7.22222C18.2879 7.2775 18.0988 7.67424 17.9899 7.84739C17.8138 8.12724 17.6066 8.35001 17.3371 8.54909C17.1185 8.71064 17.1142 8.71696 17.2395 8.69475C17.5888 8.63279 18.0276 8.51754 18.3188 8.41127C18.496 8.34662 18.6286 8.31456 18.6136 8.34006C18.4447 8.62682 17.955 9.16332 17.6092 9.44056L17.317 9.67481L17.3145 10.0667C17.2964 12.8509 15.7159 15.5564 13.3377 16.8739C10.9924 18.1733 7.844 18.1237 5.58709 16.7518L5.36006 16.6138L5.78799 16.6341C6.92496 16.688 8.02292 16.377 9.03507 15.7143L9.36693 15.497L9.19124 15.4651C8.72598 15.3806 8.56783 15.338 8.34455 15.2372C7.75319 14.9703 7.27762 14.5072 6.9838 13.9119C6.8135 13.5669 6.81178 13.5711 7.11088 13.602C7.55013 13.6475 8.16043 13.5263 7.79031 13.4671C7.70423 13.4533 7.47049 13.3587 7.27083 13.2567C6.67834 12.9543 6.18637 12.4105 5.92968 11.7744C5.8398 11.5518 5.71991 10.8882 5.76191 10.8462C5.77382 10.8343 5.86951 10.8614 5.97453 10.9065C6.19383 11.0005 6.7399 11.1382 6.89548 11.1386C6.99176 11.1388 6.97142 11.1095 6.65893 10.7972C6.08682 10.2256 5.89122 9.7322 5.89665 8.87446C5.89985 8.37024 5.98601 7.99005 6.17786 7.63372L6.24681 7.50566L6.56711 7.85493C7.86449 9.26963 9.60082 10.1206 11.6352 10.3388L11.8734 10.3643L11.8548 9.88173C11.8094 8.70541 12.3896 7.73542 13.4279 7.25139C13.9969 6.9861 14.7781 6.93285 15.3794 7.11829Z" fill="black"/>
</mask>
<g mask="url(#mask0_129_31)">
<path d="M22 2H2V22H22V2Z" fill="white"/>
</g>
</svg>
